# Wavefront OBJ file automatically generated by Tiled2Unity

# Vertices (Count = 349)
v 0 -1 0
v -1 -1 0
v -1 0 0
v 0 0 0
v -2 -1 0
v -2 0 0
v -3 -1 0
v -3 0 0
v -4 -1 0
v -4 0 0
v -5 -1 0
v -5 0 0
v -6 -1 0
v -6 0 0
v -7 -1 0
v -7 0 0
v -8 -1 0
v -8 0 0
v -9 -1 0
v -9 0 0
v -10 -1 0
v -10 0 0
v -11 -1 0
v -11 0 0
v -12 -1 0
v -12 0 0
v -13 -1 0
v -13 0 0
v -14 -1 0
v -14 0 0
v -15 -1 0
v -15 0 0
v -16 -1 0
v -16 0 0
v -17 -1 0
v -17 0 0
v -18 -1 0
v -18 0 0
v -19 -1 0
v -19 0 0
v -20 -1 0
v -20 0 0
v 0 -2 0
v -1 -2 0
v -2 -2 0
v -5 -2 0
v -6 -2 0
v -7 -2 0
v -13 -2 0
v -14 -2 0
v -15 -2 0
v -16 -2 0
v -17 -2 0
v -18 -2 0
v -19 -2 0
v -20 -2 0
v 0 -3 0
v -1 -3 0
v -2 -3 0
v -5 -3 0
v -6 -3 0
v -7 -3 0
v -13 -3 0
v -14 -3 0
v -15 -3 0
v -16 -3 0
v -17 -3 0
v -18 -3 0
v -19 -3 0
v -20 -3 0
v 0 -4 0
v -1 -4 0
v -2 -4 0
v -5 -4 0
v -6 -4 0
v -7 -4 0
v -13 -4 0
v -14 -4 0
v -15 -4 0
v -16 -4 0
v -17 -4 0
v -18 -4 0
v -19 -4 0
v -20 -4 0
v 0 -5 0
v -1 -5 0
v -2 -5 0
v -5 -5 0
v -6 -5 0
v -7 -5 0
v -19 -5 0
v -20 -5 0
v 0 -6 0
v -1 -6 0
v -2 -6 0
v -5 -6 0
v -6 -6 0
v -7 -6 0
v -19 -6 0
v -20 -6 0
v 0 -7 0
v -1 -7 0
v -2 -7 0
v -5 -7 0
v -6 -7 0
v -7 -7 0
v -19 -7 0
v -20 -7 0
v 0 -8 0
v -1 -8 0
v -2 -8 0
v -5 -8 0
v -6 -8 0
v -7 -8 0
v -19 -8 0
v -20 -8 0
v 0 -9 0
v -1 -9 0
v -2 -9 0
v -19 -9 0
v -20 -9 0
v 0 -10 0
v -1 -10 0
v -2 -10 0
v -15 -10 0
v -16 -10 0
v -16 -9 0
v -15 -9 0
v -17 -10 0
v -17 -9 0
v -18 -10 0
v -18 -9 0
v -19 -10 0
v -20 -10 0
v 0 -11 0
v -1 -11 0
v -2 -11 0
v -15 -11 0
v -16 -11 0
v -17 -11 0
v -18 -11 0
v -19 -11 0
v -20 -11 0
v 0 -12 0
v -1 -12 0
v -2 -12 0
v -3 -12 0
v -3 -11 0
v -4 -12 0
v -4 -11 0
v -5 -12 0
v -5 -11 0
v -6 -12 0
v -6 -11 0
v -7 -12 0
v -7 -11 0
v -8 -12 0
v -8 -11 0
v -9 -12 0
v -9 -11 0
v -10 -12 0
v -10 -11 0
v -15 -12 0
v -16 -12 0
v -17 -12 0
v -18 -12 0
v -19 -12 0
v -20 -12 0
v 0 -13 0
v -1 -13 0
v -2 -13 0
v -3 -13 0
v -4 -13 0
v -5 -13 0
v -6 -13 0
v -7 -13 0
v -8 -13 0
v -9 -13 0
v -10 -13 0
v -15 -13 0
v -16 -13 0
v -17 -13 0
v -18 -13 0
v -19 -13 0
v -20 -13 0
v 0 -14 0
v -1 -14 0
v -2 -14 0
v -3 -14 0
v -4 -14 0
v -5 -14 0
v -6 -14 0
v -7 -14 0
v -8 -14 0
v -9 -14 0
v -10 -14 0
v -19 -14 0
v -20 -14 0
v 0 -15 0
v -1 -15 0
v -2 -15 0
v -3 -15 0
v -4 -15 0
v -5 -15 0
v -6 -15 0
v -7 -15 0
v -8 -15 0
v -9 -15 0
v -10 -15 0
v -19 -15 0
v -20 -15 0
v 0 -16 0
v -1 -16 0
v -2 -16 0
v -3 -16 0
v -4 -16 0
v -5 -16 0
v -6 -16 0
v -7 -16 0
v -8 -16 0
v -9 -16 0
v -10 -16 0
v -19 -16 0
v -20 -16 0
v 0 -17 0
v -1 -17 0
v -2 -17 0
v -19 -17 0
v -20 -17 0
v 0 -18 0
v -1 -18 0
v -2 -18 0
v -19 -18 0
v -20 -18 0
v 0 -19 0
v -1 -19 0
v -2 -19 0
v -19 -19 0
v -20 -19 0
v 0 -20 0
v -1 -20 0
v -2 -20 0
v -3 -20 0
v -3 -19 0
v -4 -20 0
v -4 -19 0
v -5 -20 0
v -5 -19 0
v -6 -20 0
v -6 -19 0
v -7 -20 0
v -7 -19 0
v -8 -20 0
v -8 -19 0
v -9 -20 0
v -9 -19 0
v -10 -20 0
v -10 -19 0
v -11 -20 0
v -11 -19 0
v -12 -20 0
v -12 -19 0
v -14 -20 0
v -15 -20 0
v -15 -19 0
v -14 -19 0
v -16 -20 0
v -16 -19 0
v -17 -20 0
v -17 -19 0
v -18 -20 0
v -18 -19 0
v -19 -20 0
v -20 -20 0
v -3 -2 0
v -4 -2 0
v -8 -2 0
v -9 -2 0
v -10 -2 0
v -11 -2 0
v -12 -2 0
v -3 -3 0
v -4 -3 0
v -8 -3 0
v -9 -3 0
v -10 -3 0
v -11 -3 0
v -12 -3 0
v -13 -5 0
v -14 -5 0
v -15 -5 0
v -16 -5 0
v -17 -5 0
v -18 -5 0
v -13 -6 0
v -14 -6 0
v -15 -6 0
v -16 -6 0
v -17 -6 0
v -18 -6 0
v -5 -9 0
v -6 -9 0
v -7 -9 0
v -5 -10 0
v -6 -10 0
v -7 -10 0
v -15 -14 0
v -16 -14 0
v -17 -14 0
v -18 -14 0
v -15 -15 0
v -16 -15 0
v -17 -15 0
v -18 -15 0
v -3 -17 0
v -4 -17 0
v -5 -17 0
v -6 -17 0
v -7 -17 0
v -8 -17 0
v -9 -17 0
v -10 -17 0
v -3 -18 0
v -4 -18 0
v -5 -18 0
v -6 -18 0
v -7 -18 0
v -8 -18 0
v -9 -18 0
v -10 -18 0
v -1 -21 0
v -2 -21 0
v -3 -21 0
v -4 -21 0
v -5 -21 0
v -6 -21 0
v -7 -21 0
v -8 -21 0
v -9 -21 0
v -10 -21 0
v -11 -21 0
v -12 -21 0
v -14 -21 0
v -15 -21 0
v -16 -21 0
v -17 -21 0
v -18 -21 0
v -19 -21 0
v -20 -21 0

# Texture cooridinates (Count = 80)
vt 0.1250051 0.5625076
vt 0.1666616 0.5625076
vt 0.1666616 0.6249924
vt 0.1250051 0.6249924
vt 0.04167175 0.5000076
vt 0.08332825 0.5000076
vt 0.08332825 0.5624924
vt 0.04167175 0.5624924
vt 0.1250051 0.5000076
vt 0.1666616 0.5000076
vt 0.1666616 0.5624924
vt 0.1250051 0.5624924
vt 5.086263E-06 0.5000076
vt 0.04166158 0.5000076
vt 0.04166158 0.5624924
vt 5.086263E-06 0.5624924
vt 0.1666718 0.5625076
vt 0.2083282 0.5625076
vt 0.2083282 0.6249924
vt 0.1666718 0.6249924
vt 0.08333842 0.5625076
vt 0.1249949 0.5625076
vt 0.1249949 0.6249924
vt 0.08333842 0.6249924
vt 0.08333842 0.5000076
vt 0.1249949 0.5000076
vt 0.1249949 0.5624924
vt 0.08333842 0.5624924
vt 0.1666718 0.5000076
vt 0.2083282 0.5000076
vt 0.2083282 0.5624924
vt 0.1666718 0.5624924
vt 0.08333842 0.6250076
vt 0.1249949 0.6250076
vt 0.1249949 0.6874924
vt 0.08333842 0.6874924
vt 0.1250051 0.6250076
vt 0.1666616 0.6250076
vt 0.1666616 0.6874924
vt 0.1250051 0.6874924
vt 5.086263E-06 0.5625076
vt 0.04166158 0.5625076
vt 0.04166158 0.6249924
vt 5.086263E-06 0.6249924
vt 0.04167175 0.5625076
vt 0.08332825 0.5625076
vt 0.08332825 0.6249924
vt 0.04167175 0.6249924
vt 0.1666718 0.6250076
vt 0.2083282 0.6250076
vt 0.2083282 0.6874924
vt 0.1666718 0.6874924
vt 0.4583384 0.9375076
vt 0.4999949 0.9375076
vt 0.4999949 0.9999924
vt 0.4583384 0.9999924
vt 0.5000051 0.9375076
vt 0.5416616 0.9375076
vt 0.5416616 0.9999924
vt 0.5000051 0.9999924
vt 0.5416718 0.9375076
vt 0.5833282 0.9375076
vt 0.5833282 0.9999924
vt 0.5416718 0.9999924
vt 0.4583384 0.8125076
vt 0.4999949 0.8125076
vt 0.4999949 0.8749924
vt 0.4583384 0.8749924
vt 0.5000051 0.8125076
vt 0.5416616 0.8125076
vt 0.5416616 0.8749924
vt 0.5000051 0.8749924
vt 0.5416718 0.8125076
vt 0.5833282 0.8125076
vt 0.5833282 0.8749924
vt 0.5416718 0.8749924
vt 0.0001220703 0.0001220703
vt 0.9998779 0.0001220703
vt 0.9998779 0.9998779
vt 0.0001220703 0.9998779

# Normal
vn 0 0 -1

# Groups (Count = 3)

g mesh_0001
f 1/1/1 2/2/1 3/3/1 4/4/1
f 2/5/1 5/6/1 6/7/1 3/8/1
f 5/9/1 7/10/1 8/11/1 6/12/1
f 7/9/1 9/10/1 10/11/1 8/12/1
f 9/9/1 11/10/1 12/11/1 10/12/1
f 11/13/1 13/14/1 14/15/1 12/16/1
f 13/5/1 15/6/1 16/7/1 14/8/1
f 15/9/1 17/10/1 18/11/1 16/12/1
f 17/9/1 19/10/1 20/11/1 18/12/1
f 19/9/1 21/10/1 22/11/1 20/12/1
f 21/9/1 23/10/1 24/11/1 22/12/1
f 23/9/1 25/10/1 26/11/1 24/12/1
f 25/9/1 27/10/1 28/11/1 26/12/1
f 27/13/1 29/14/1 30/15/1 28/16/1
f 29/1/1 31/2/1 32/3/1 30/4/1
f 31/1/1 33/2/1 34/3/1 32/4/1
f 33/1/1 35/2/1 36/3/1 34/4/1
f 35/1/1 37/2/1 38/3/1 36/4/1
f 37/1/1 39/2/1 40/3/1 38/4/1
f 39/1/1 41/2/1 42/3/1 40/4/1
f 43/1/1 44/2/1 2/3/1 1/4/1
f 44/17/1 45/18/1 5/19/1 2/20/1
f 46/21/1 47/22/1 13/23/1 11/24/1
f 47/17/1 48/18/1 15/19/1 13/20/1
f 49/21/1 50/22/1 29/23/1 27/24/1
f 50/1/1 51/2/1 31/3/1 29/4/1
f 51/1/1 52/2/1 33/3/1 31/4/1
f 52/1/1 53/2/1 35/3/1 33/4/1
f 53/1/1 54/2/1 37/3/1 35/4/1
f 54/1/1 55/2/1 39/3/1 37/4/1
f 55/1/1 56/2/1 41/3/1 39/4/1
f 57/1/1 58/2/1 44/3/1 43/4/1
f 58/17/1 59/18/1 45/19/1 44/20/1
f 60/21/1 61/22/1 47/23/1 46/24/1
f 61/17/1 62/18/1 48/19/1 47/20/1
f 63/21/1 64/22/1 50/23/1 49/24/1
f 64/1/1 65/2/1 51/3/1 50/4/1
f 65/1/1 66/2/1 52/3/1 51/4/1
f 66/1/1 67/2/1 53/3/1 52/4/1
f 67/1/1 68/2/1 54/3/1 53/4/1
f 68/1/1 69/2/1 55/3/1 54/4/1
f 69/1/1 70/2/1 56/3/1 55/4/1
f 71/1/1 72/2/1 58/3/1 57/4/1
f 72/17/1 73/18/1 59/19/1 58/20/1
f 74/21/1 75/22/1 61/23/1 60/24/1
f 75/17/1 76/18/1 62/19/1 61/20/1
f 77/25/1 78/26/1 64/27/1 63/28/1
f 78/9/1 79/10/1 65/11/1 64/12/1
f 79/9/1 80/10/1 66/11/1 65/12/1
f 80/9/1 81/10/1 67/11/1 66/12/1
f 81/9/1 82/10/1 68/11/1 67/12/1
f 82/9/1 83/10/1 69/11/1 68/12/1
f 83/13/1 84/14/1 70/15/1 69/16/1
f 85/1/1 86/2/1 72/3/1 71/4/1
f 86/17/1 87/18/1 73/19/1 72/20/1
f 88/21/1 89/22/1 75/23/1 74/24/1
f 89/17/1 90/18/1 76/19/1 75/20/1
f 91/21/1 92/22/1 84/23/1 83/24/1
f 93/1/1 94/2/1 86/3/1 85/4/1
f 94/17/1 95/18/1 87/19/1 86/20/1
f 96/21/1 97/22/1 89/23/1 88/24/1
f 97/17/1 98/18/1 90/19/1 89/20/1
f 99/21/1 100/22/1 92/23/1 91/24/1
f 101/1/1 102/2/1 94/3/1 93/4/1
f 102/17/1 103/18/1 95/19/1 94/20/1
f 104/21/1 105/22/1 97/23/1 96/24/1
f 105/17/1 106/18/1 98/19/1 97/20/1
f 107/21/1 108/22/1 100/23/1 99/24/1
f 109/1/1 110/2/1 102/3/1 101/4/1
f 110/17/1 111/18/1 103/19/1 102/20/1
f 112/25/1 113/26/1 105/27/1 104/28/1
f 113/29/1 114/30/1 106/31/1 105/32/1
f 115/21/1 116/22/1 108/23/1 107/24/1
f 117/1/1 118/2/1 110/3/1 109/4/1
f 118/17/1 119/18/1 111/19/1 110/20/1
f 120/21/1 121/22/1 116/23/1 115/24/1
f 122/1/1 123/2/1 118/3/1 117/4/1
f 123/17/1 124/18/1 119/19/1 118/20/1
f 125/33/1 126/34/1 127/35/1 128/36/1
f 126/37/1 129/38/1 130/39/1 127/40/1
f 129/37/1 131/38/1 132/39/1 130/40/1
f 131/37/1 133/38/1 120/39/1 132/40/1
f 133/41/1 134/42/1 121/43/1 120/44/1
f 135/1/1 136/2/1 123/3/1 122/4/1
f 136/17/1 137/18/1 124/19/1 123/20/1
f 138/21/1 139/22/1 126/23/1 125/24/1
f 139/1/1 140/2/1 129/3/1 126/4/1
f 140/1/1 141/2/1 131/3/1 129/4/1
f 141/1/1 142/2/1 133/3/1 131/4/1
f 142/1/1 143/2/1 134/3/1 133/4/1
f 144/1/1 145/2/1 136/3/1 135/4/1
f 145/45/1 146/46/1 137/47/1 136/48/1
f 146/37/1 147/38/1 148/39/1 137/40/1
f 147/37/1 149/38/1 150/39/1 148/40/1
f 149/37/1 151/38/1 152/39/1 150/40/1
f 151/37/1 153/38/1 154/39/1 152/40/1
f 153/37/1 155/38/1 156/39/1 154/40/1
f 155/37/1 157/38/1 158/39/1 156/40/1
f 157/37/1 159/38/1 160/39/1 158/40/1
f 159/49/1 161/50/1 162/51/1 160/52/1
f 163/21/1 164/22/1 139/23/1 138/24/1
f 164/1/1 165/2/1 140/3/1 139/4/1
f 165/1/1 166/2/1 141/3/1 140/4/1
f 166/1/1 167/2/1 142/3/1 141/4/1
f 167/1/1 168/2/1 143/3/1 142/4/1
f 169/1/1 170/2/1 145/3/1 144/4/1
f 170/1/1 171/2/1 146/3/1 145/4/1
f 171/1/1 172/2/1 147/3/1 146/4/1
f 172/1/1 173/2/1 149/3/1 147/4/1
f 173/1/1 174/2/1 151/3/1 149/4/1
f 174/1/1 175/2/1 153/3/1 151/4/1
f 175/1/1 176/2/1 155/3/1 153/4/1
f 176/1/1 177/2/1 157/3/1 155/4/1
f 177/1/1 178/2/1 159/3/1 157/4/1
f 178/17/1 179/18/1 161/19/1 159/20/1
f 180/25/1 181/26/1 164/27/1 163/28/1
f 181/9/1 182/10/1 165/11/1 164/12/1
f 182/9/1 183/10/1 166/11/1 165/12/1
f 183/9/1 184/10/1 167/11/1 166/12/1
f 184/13/1 185/14/1 168/15/1 167/16/1
f 186/1/1 187/2/1 170/3/1 169/4/1
f 187/1/1 188/2/1 171/3/1 170/4/1
f 188/1/1 189/2/1 172/3/1 171/4/1
f 189/1/1 190/2/1 173/3/1 172/4/1
f 190/1/1 191/2/1 174/3/1 173/4/1
f 191/1/1 192/2/1 175/3/1 174/4/1
f 192/1/1 193/2/1 176/3/1 175/4/1
f 193/1/1 194/2/1 177/3/1 176/4/1
f 194/1/1 195/2/1 178/3/1 177/4/1
f 195/17/1 196/18/1 179/19/1 178/20/1
f 197/21/1 198/22/1 185/23/1 184/24/1
f 199/1/1 200/2/1 187/3/1 186/4/1
f 200/1/1 201/2/1 188/3/1 187/4/1
f 201/1/1 202/2/1 189/3/1 188/4/1
f 202/1/1 203/2/1 190/3/1 189/4/1
f 203/1/1 204/2/1 191/3/1 190/4/1
f 204/1/1 205/2/1 192/3/1 191/4/1
f 205/1/1 206/2/1 193/3/1 192/4/1
f 206/1/1 207/2/1 194/3/1 193/4/1
f 207/1/1 208/2/1 195/3/1 194/4/1
f 208/17/1 209/18/1 196/19/1 195/20/1
f 210/21/1 211/22/1 198/23/1 197/24/1
f 212/1/1 213/2/1 200/3/1 199/4/1
f 213/5/1 214/6/1 201/7/1 200/8/1
f 214/9/1 215/10/1 202/11/1 201/12/1
f 215/9/1 216/10/1 203/11/1 202/12/1
f 216/9/1 217/10/1 204/11/1 203/12/1
f 217/9/1 218/10/1 205/11/1 204/12/1
f 218/9/1 219/10/1 206/11/1 205/12/1
f 219/9/1 220/10/1 207/11/1 206/12/1
f 220/9/1 221/10/1 208/11/1 207/12/1
f 221/29/1 222/30/1 209/31/1 208/32/1
f 223/21/1 224/22/1 211/23/1 210/24/1
f 225/1/1 226/2/1 213/3/1 212/4/1
f 226/17/1 227/18/1 214/19/1 213/20/1
f 228/21/1 229/22/1 224/23/1 223/24/1
f 230/1/1 231/2/1 226/3/1 225/4/1
f 231/17/1 232/18/1 227/19/1 226/20/1
f 233/21/1 234/22/1 229/23/1 228/24/1
f 235/1/1 236/2/1 231/3/1 230/4/1
f 236/17/1 237/18/1 232/19/1 231/20/1
f 238/21/1 239/22/1 234/23/1 233/24/1
f 240/1/1 241/2/1 236/3/1 235/4/1
f 241/45/1 242/46/1 237/47/1 236/48/1
f 242/37/1 243/38/1 244/39/1 237/40/1
f 243/37/1 245/38/1 246/39/1 244/40/1
f 245/37/1 247/38/1 248/39/1 246/40/1
f 247/37/1 249/38/1 250/39/1 248/40/1
f 249/37/1 251/38/1 252/39/1 250/40/1
f 251/37/1 253/38/1 254/39/1 252/40/1
f 253/37/1 255/38/1 256/39/1 254/40/1
f 255/37/1 257/38/1 258/39/1 256/40/1
f 257/37/1 259/38/1 260/39/1 258/40/1
f 259/37/1 261/38/1 262/39/1 260/40/1
f 263/37/1 264/38/1 265/39/1 266/40/1
f 264/37/1 267/38/1 268/39/1 265/40/1
f 267/37/1 269/38/1 270/39/1 268/40/1
f 269/37/1 271/38/1 272/39/1 270/40/1
f 271/37/1 273/38/1 238/39/1 272/40/1
f 273/41/1 274/42/1 239/43/1 238/44/1

g mesh_0002
f 45/53/1 275/54/1 7/55/1 5/56/1
f 275/57/1 276/58/1 9/59/1 7/60/1
f 276/61/1 46/62/1 11/63/1 9/64/1
f 48/53/1 277/54/1 17/55/1 15/56/1
f 277/57/1 278/58/1 19/59/1 17/60/1
f 278/57/1 279/58/1 21/59/1 19/60/1
f 279/57/1 280/58/1 23/59/1 21/60/1
f 280/57/1 281/58/1 25/59/1 23/60/1
f 281/61/1 49/62/1 27/63/1 25/64/1
f 59/65/1 282/66/1 275/67/1 45/68/1
f 282/69/1 283/70/1 276/71/1 275/72/1
f 283/73/1 60/74/1 46/75/1 276/76/1
f 62/65/1 284/66/1 277/67/1 48/68/1
f 284/69/1 285/70/1 278/71/1 277/72/1
f 285/69/1 286/70/1 279/71/1 278/72/1
f 286/69/1 287/70/1 280/71/1 279/72/1
f 287/69/1 288/70/1 281/71/1 280/72/1
f 288/73/1 63/74/1 49/75/1 281/76/1
f 289/53/1 290/54/1 78/55/1 77/56/1
f 290/57/1 291/58/1 79/59/1 78/60/1
f 291/57/1 292/58/1 80/59/1 79/60/1
f 292/57/1 293/58/1 81/59/1 80/60/1
f 293/57/1 294/58/1 82/59/1 81/60/1
f 294/61/1 91/62/1 83/63/1 82/64/1
f 295/65/1 296/66/1 290/67/1 289/68/1
f 296/69/1 297/70/1 291/71/1 290/72/1
f 297/69/1 298/70/1 292/71/1 291/72/1
f 298/69/1 299/70/1 293/71/1 292/72/1
f 299/69/1 300/70/1 294/71/1 293/72/1
f 300/73/1 99/74/1 91/75/1 294/76/1
f 301/53/1 302/54/1 113/55/1 112/56/1
f 302/61/1 303/62/1 114/63/1 113/64/1
f 304/65/1 305/66/1 302/67/1 301/68/1
f 305/73/1 306/74/1 303/75/1 302/76/1
f 307/53/1 308/54/1 181/55/1 180/56/1
f 308/57/1 309/58/1 182/59/1 181/60/1
f 309/57/1 310/58/1 183/59/1 182/60/1
f 310/61/1 197/62/1 184/63/1 183/64/1
f 311/65/1 312/66/1 308/67/1 307/68/1
f 312/69/1 313/70/1 309/71/1 308/72/1
f 313/69/1 314/70/1 310/71/1 309/72/1
f 314/73/1 210/74/1 197/75/1 310/76/1
f 227/53/1 315/54/1 215/55/1 214/56/1
f 315/57/1 316/58/1 216/59/1 215/60/1
f 316/57/1 317/58/1 217/59/1 216/60/1
f 317/57/1 318/58/1 218/59/1 217/60/1
f 318/57/1 319/58/1 219/59/1 218/60/1
f 319/57/1 320/58/1 220/59/1 219/60/1
f 320/57/1 321/58/1 221/59/1 220/60/1
f 321/61/1 322/62/1 222/63/1 221/64/1
f 232/65/1 323/66/1 315/67/1 227/68/1
f 323/69/1 324/70/1 316/71/1 315/72/1
f 324/69/1 325/70/1 317/71/1 316/72/1
f 325/69/1 326/70/1 318/71/1 317/72/1
f 326/69/1 327/70/1 319/71/1 318/72/1
f 327/69/1 328/70/1 320/71/1 319/72/1
f 328/69/1 329/70/1 321/71/1 320/72/1
f 329/73/1 330/74/1 322/75/1 321/76/1

g mesh_0003
f 44/77/1 45/78/1 5/79/1 2/80/1
f 45/77/1 275/78/1 7/79/1 5/80/1
f 275/77/1 276/78/1 9/79/1 7/80/1
f 276/77/1 46/78/1 11/79/1 9/80/1
f 46/77/1 47/78/1 13/79/1 11/80/1
f 47/77/1 48/78/1 15/79/1 13/80/1
f 48/77/1 277/78/1 17/79/1 15/80/1
f 277/77/1 278/78/1 19/79/1 17/80/1
f 278/77/1 279/78/1 21/79/1 19/80/1
f 279/77/1 280/78/1 23/79/1 21/80/1
f 280/77/1 281/78/1 25/79/1 23/80/1
f 281/77/1 49/78/1 27/79/1 25/80/1
f 49/77/1 50/78/1 29/79/1 27/80/1
f 58/77/1 59/78/1 45/79/1 44/80/1
f 60/77/1 61/78/1 47/79/1 46/80/1
f 61/77/1 62/78/1 48/79/1 47/80/1
f 63/77/1 64/78/1 50/79/1 49/80/1
f 72/77/1 73/78/1 59/79/1 58/80/1
f 74/77/1 75/78/1 61/79/1 60/80/1
f 75/77/1 76/78/1 62/79/1 61/80/1
f 77/77/1 78/78/1 64/79/1 63/80/1
f 86/77/1 87/78/1 73/79/1 72/80/1
f 88/77/1 89/78/1 75/79/1 74/80/1
f 89/77/1 90/78/1 76/79/1 75/80/1
f 289/77/1 290/78/1 78/79/1 77/80/1
f 290/77/1 291/78/1 79/79/1 78/80/1
f 291/77/1 292/78/1 80/79/1 79/80/1
f 292/77/1 293/78/1 81/79/1 80/80/1
f 293/77/1 294/78/1 82/79/1 81/80/1
f 294/77/1 91/78/1 83/79/1 82/80/1
f 91/77/1 92/78/1 84/79/1 83/80/1
f 94/77/1 95/78/1 87/79/1 86/80/1
f 96/77/1 97/78/1 89/79/1 88/80/1
f 97/77/1 98/78/1 90/79/1 89/80/1
f 99/77/1 100/78/1 92/79/1 91/80/1
f 102/77/1 103/78/1 95/79/1 94/80/1
f 104/77/1 105/78/1 97/79/1 96/80/1
f 105/77/1 106/78/1 98/79/1 97/80/1
f 107/77/1 108/78/1 100/79/1 99/80/1
f 110/77/1 111/78/1 103/79/1 102/80/1
f 112/77/1 113/78/1 105/79/1 104/80/1
f 113/77/1 114/78/1 106/79/1 105/80/1
f 115/77/1 116/78/1 108/79/1 107/80/1
f 118/77/1 119/78/1 111/79/1 110/80/1
f 301/77/1 302/78/1 113/79/1 112/80/1
f 302/77/1 303/78/1 114/79/1 113/80/1
f 120/77/1 121/78/1 116/79/1 115/80/1
f 123/77/1 124/78/1 119/79/1 118/80/1
f 133/77/1 134/78/1 121/79/1 120/80/1
f 136/77/1 137/78/1 124/79/1 123/80/1
f 138/77/1 139/78/1 126/79/1 125/80/1
f 139/77/1 140/78/1 129/79/1 126/80/1
f 140/77/1 141/78/1 131/79/1 129/80/1
f 141/77/1 142/78/1 133/79/1 131/80/1
f 142/77/1 143/78/1 134/79/1 133/80/1
f 145/77/1 146/78/1 137/79/1 136/80/1
f 163/77/1 164/78/1 139/79/1 138/80/1
f 170/77/1 171/78/1 146/79/1 145/80/1
f 171/77/1 172/78/1 147/79/1 146/80/1
f 172/77/1 173/78/1 149/79/1 147/80/1
f 173/77/1 174/78/1 151/79/1 149/80/1
f 174/77/1 175/78/1 153/79/1 151/80/1
f 175/77/1 176/78/1 155/79/1 153/80/1
f 176/77/1 177/78/1 157/79/1 155/80/1
f 177/77/1 178/78/1 159/79/1 157/80/1
f 178/77/1 179/78/1 161/79/1 159/80/1
f 180/77/1 181/78/1 164/79/1 163/80/1
f 195/77/1 196/78/1 179/79/1 178/80/1
f 307/77/1 308/78/1 181/79/1 180/80/1
f 308/77/1 309/78/1 182/79/1 181/80/1
f 309/77/1 310/78/1 183/79/1 182/80/1
f 310/77/1 197/78/1 184/79/1 183/80/1
f 197/77/1 198/78/1 185/79/1 184/80/1
f 208/77/1 209/78/1 196/79/1 195/80/1
f 210/77/1 211/78/1 198/79/1 197/80/1
f 221/77/1 222/78/1 209/79/1 208/80/1
f 223/77/1 224/78/1 211/79/1 210/80/1
f 226/77/1 227/78/1 214/79/1 213/80/1
f 227/77/1 315/78/1 215/79/1 214/80/1
f 315/77/1 316/78/1 216/79/1 215/80/1
f 316/77/1 317/78/1 217/79/1 216/80/1
f 317/77/1 318/78/1 218/79/1 217/80/1
f 318/77/1 319/78/1 219/79/1 218/80/1
f 319/77/1 320/78/1 220/79/1 219/80/1
f 320/77/1 321/78/1 221/79/1 220/80/1
f 321/77/1 322/78/1 222/79/1 221/80/1
f 228/77/1 229/78/1 224/79/1 223/80/1
f 231/77/1 232/78/1 227/79/1 226/80/1
f 233/77/1 234/78/1 229/79/1 228/80/1
f 236/77/1 237/78/1 232/79/1 231/80/1
f 238/77/1 239/78/1 234/79/1 233/80/1
f 241/77/1 242/78/1 237/79/1 236/80/1
f 273/77/1 274/78/1 239/79/1 238/80/1
f 331/77/1 332/78/1 242/79/1 241/80/1
f 332/77/1 333/78/1 243/79/1 242/80/1
f 333/77/1 334/78/1 245/79/1 243/80/1
f 334/77/1 335/78/1 247/79/1 245/80/1
f 335/77/1 336/78/1 249/79/1 247/80/1
f 336/77/1 337/78/1 251/79/1 249/80/1
f 337/77/1 338/78/1 253/79/1 251/80/1
f 338/77/1 339/78/1 255/79/1 253/80/1
f 339/77/1 340/78/1 257/79/1 255/80/1
f 340/77/1 341/78/1 259/79/1 257/80/1
f 341/77/1 342/78/1 261/79/1 259/80/1
f 343/77/1 344/78/1 264/79/1 263/80/1
f 344/77/1 345/78/1 267/79/1 264/80/1
f 345/77/1 346/78/1 269/79/1 267/80/1
f 346/77/1 347/78/1 271/79/1 269/80/1
f 347/77/1 348/78/1 273/79/1 271/80/1
f 348/77/1 349/78/1 274/79/1 273/80/1

